{"title":"Gladiator.Extended.2000.SWESUB.DVDRip.XviD.AC3-Zen_Bud","uid":5772767,"size":2622904320,"categoryP":"video","categoryS":"movies","magnet":"?xt=urn:btih:c21ab224be1b7c8640451200c567a40375260304&amp;dn=Gladiator.Extended.2000.SWESUB.DVDRip.XviD.AC3-Zen_Bud&amp;tr=udp%3A%2F%2Ftracker.openbittorrent.com%3A80&amp;tr=udp%3A%2F%2Fopen.demonii.com%3A1337&amp;tr=udp%3A%2F%2Ftracker.coppersurfer.tk%3A6969&amp;tr=udp%3A%2F%2Fexodus.desync.com%3A6969","seeders":0,"leechers":0,"uploader":"Zen_Bud","files":-1,"time":1282163060,"description":"\nComplete name.......: Gladiator.Extended.2000.SWESUB.DVDRip.XviD.AC3-Zen_Bud\n\nFormat                           : AVI\nFile size                        : 2.44 GiB\nDuration                         : 2h 43mn\nOverall bit rate                 : 2 134 Kbps\n\n\nVideo\n\nFormat                           : MPEG-4 Visual\nCodec ID/Hint                    : XviD\nDuration                         : 2h 43mn\nBit rate                         : 1 741 Kbps\nWidth                            : 718 pixels\nHeight                           : 436 pixels\nDisplay aspect ratio             : 1.647\nBits/(Pixel*Frame)               : 0.222\nStream size                      : 1.99 GiB (82%)\nWriting library                  : XviD 1.2.1 (UTC 2008-12-04)\n\nAudio\n\nFormat                           : AC-3\nDuration                         : 2h 43mn\nBit rate                         : 384 Kbps\nChannel(s)                       : 6 channels\nChannel positions                : Front: L C R, Side: L R, LFE\nSampling rate                    : 48.0 KHz\nStream size                      : 450 MiB (18%)\n\n\n","torrent":{"xt":"urn:btih:c21ab224be1b7c8640451200c567a40375260304","amp;dn":"Gladiator.Extended.2000.SWESUB.DVDRip.XviD.AC3-Zen_Bud","amp;tr":["udp%3A%2F%2Ftracker.openbittorrent.com%3A80","udp%3A%2F%2Fopen.demonii.com%3A1337","udp%3A%2F%2Ftracker.coppersurfer.tk%3A6969","udp%3A%2F%2Fexodus.desync.com%3A6969"],"infoHash":"c21ab224be1b7c8640451200c567a40375260304","infoHashBuffer":{"type":"Buffer","data":[194,26,178,36,190,27,124,134,64,69,18,0,197,103,164,3,117,38,3,4]},"announce":[],"urlList":[]}}